<mxfile host="app.diagrams.net" modified="2021-11-20T20:13:36.581Z" agent="5.0 (Windows NT 10.0; Win64; x64) AppleWebKit/537.36 (KHTML, like Gecko) Chrome/96.0.4664.45 Safari/537.36" etag="WX0W_Gp8p6894m8Sawj3" version="15.8.3" type="github">
  <diagram id="C5RBs43oDa-KdzZeNtuy" name="Page-1">
    <mxGraphModel dx="1038" dy="539" grid="1" gridSize="10" guides="1" tooltips="1" connect="1" arrows="1" fold="1" page="1" pageScale="1" pageWidth="827" pageHeight="1169" math="0" shadow="0">
      <root>
        <mxCell id="WIyWlLk6GJQsqaUBKTNV-0" />
        <mxCell id="WIyWlLk6GJQsqaUBKTNV-1" parent="WIyWlLk6GJQsqaUBKTNV-0" />
        <mxCell id="vXwoMK5besygJgzpD4nO-2" value="" style="edgeStyle=orthogonalEdgeStyle;rounded=0;orthogonalLoop=1;jettySize=auto;html=1;" edge="1" parent="WIyWlLk6GJQsqaUBKTNV-1" source="vXwoMK5besygJgzpD4nO-0" target="vXwoMK5besygJgzpD4nO-1">
          <mxGeometry relative="1" as="geometry">
            <Array as="points">
              <mxPoint x="377" y="110" />
              <mxPoint x="377" y="110" />
            </Array>
          </mxGeometry>
        </mxCell>
        <mxCell id="vXwoMK5besygJgzpD4nO-0" value="RF balun" style="rounded=1;whiteSpace=wrap;html=1;" vertex="1" parent="WIyWlLk6GJQsqaUBKTNV-1">
          <mxGeometry x="294" y="40" width="166" height="40" as="geometry" />
        </mxCell>
        <mxCell id="vXwoMK5besygJgzpD4nO-4" value="" style="edgeStyle=orthogonalEdgeStyle;rounded=0;orthogonalLoop=1;jettySize=auto;html=1;" edge="1" parent="WIyWlLk6GJQsqaUBKTNV-1" source="vXwoMK5besygJgzpD4nO-1" target="vXwoMK5besygJgzpD4nO-3">
          <mxGeometry relative="1" as="geometry">
            <Array as="points">
              <mxPoint x="375" y="180" />
              <mxPoint x="375" y="180" />
            </Array>
          </mxGeometry>
        </mxCell>
        <mxCell id="vXwoMK5besygJgzpD4nO-6" style="edgeStyle=orthogonalEdgeStyle;rounded=0;orthogonalLoop=1;jettySize=auto;html=1;" edge="1" parent="WIyWlLk6GJQsqaUBKTNV-1" source="vXwoMK5besygJgzpD4nO-1">
          <mxGeometry relative="1" as="geometry">
            <mxPoint x="600" y="140" as="targetPoint" />
          </mxGeometry>
        </mxCell>
        <mxCell id="vXwoMK5besygJgzpD4nO-10" style="edgeStyle=orthogonalEdgeStyle;rounded=0;orthogonalLoop=1;jettySize=auto;html=1;" edge="1" parent="WIyWlLk6GJQsqaUBKTNV-1" source="vXwoMK5besygJgzpD4nO-1">
          <mxGeometry relative="1" as="geometry">
            <mxPoint x="160" y="140" as="targetPoint" />
          </mxGeometry>
        </mxCell>
        <mxCell id="vXwoMK5besygJgzpD4nO-1" value="SWITCH" style="whiteSpace=wrap;html=1;rounded=1;" vertex="1" parent="WIyWlLk6GJQsqaUBKTNV-1">
          <mxGeometry x="294" y="120" width="170" height="40" as="geometry" />
        </mxCell>
        <mxCell id="vXwoMK5besygJgzpD4nO-5" style="edgeStyle=orthogonalEdgeStyle;rounded=0;orthogonalLoop=1;jettySize=auto;html=1;" edge="1" parent="WIyWlLk6GJQsqaUBKTNV-1" source="vXwoMK5besygJgzpD4nO-3">
          <mxGeometry relative="1" as="geometry">
            <mxPoint x="375" y="330" as="targetPoint" />
            <Array as="points">
              <mxPoint x="375" y="320" />
              <mxPoint x="375" y="320" />
            </Array>
          </mxGeometry>
        </mxCell>
        <mxCell id="vXwoMK5besygJgzpD4nO-3" value="ANALOG receive" style="shape=hexagon;perimeter=hexagonPerimeter2;whiteSpace=wrap;html=1;fixedSize=1;rounded=1;" vertex="1" parent="WIyWlLk6GJQsqaUBKTNV-1">
          <mxGeometry x="315" y="200" width="120" height="80" as="geometry" />
        </mxCell>
        <mxCell id="vXwoMK5besygJgzpD4nO-9" style="edgeStyle=orthogonalEdgeStyle;rounded=0;orthogonalLoop=1;jettySize=auto;html=1;" edge="1" parent="WIyWlLk6GJQsqaUBKTNV-1" source="vXwoMK5besygJgzpD4nO-7">
          <mxGeometry relative="1" as="geometry">
            <mxPoint x="600" y="140" as="targetPoint" />
          </mxGeometry>
        </mxCell>
        <mxCell id="vXwoMK5besygJgzpD4nO-7" value="RF receive" style="ellipse;whiteSpace=wrap;html=1;" vertex="1" parent="WIyWlLk6GJQsqaUBKTNV-1">
          <mxGeometry x="540" y="210" width="120" height="60" as="geometry" />
        </mxCell>
        <mxCell id="vXwoMK5besygJgzpD4nO-12" style="edgeStyle=orthogonalEdgeStyle;rounded=0;orthogonalLoop=1;jettySize=auto;html=1;" edge="1" parent="WIyWlLk6GJQsqaUBKTNV-1" source="vXwoMK5besygJgzpD4nO-11">
          <mxGeometry relative="1" as="geometry">
            <mxPoint x="160" y="140" as="targetPoint" />
          </mxGeometry>
        </mxCell>
        <mxCell id="vXwoMK5besygJgzpD4nO-11" value="RF transimit" style="ellipse;whiteSpace=wrap;html=1;" vertex="1" parent="WIyWlLk6GJQsqaUBKTNV-1">
          <mxGeometry x="100" y="210" width="120" height="60" as="geometry" />
        </mxCell>
        <mxCell id="vXwoMK5besygJgzpD4nO-14" style="edgeStyle=orthogonalEdgeStyle;rounded=0;orthogonalLoop=1;jettySize=auto;html=1;fontSize=12;" edge="1" parent="WIyWlLk6GJQsqaUBKTNV-1" source="vXwoMK5besygJgzpD4nO-13">
          <mxGeometry relative="1" as="geometry">
            <mxPoint x="560" y="500" as="targetPoint" />
            <Array as="points">
              <mxPoint x="560" y="360" />
            </Array>
          </mxGeometry>
        </mxCell>
        <mxCell id="vXwoMK5besygJgzpD4nO-28" value="" style="edgeStyle=orthogonalEdgeStyle;rounded=0;orthogonalLoop=1;jettySize=auto;html=1;fontSize=12;" edge="1" parent="WIyWlLk6GJQsqaUBKTNV-1" source="vXwoMK5besygJgzpD4nO-13" target="vXwoMK5besygJgzpD4nO-25">
          <mxGeometry relative="1" as="geometry">
            <Array as="points">
              <mxPoint x="375" y="420" />
              <mxPoint x="375" y="420" />
            </Array>
          </mxGeometry>
        </mxCell>
        <mxCell id="vXwoMK5besygJgzpD4nO-40" value="" style="edgeStyle=orthogonalEdgeStyle;rounded=0;orthogonalLoop=1;jettySize=auto;html=1;fontSize=12;entryX=0.413;entryY=0.113;entryDx=0;entryDy=0;entryPerimeter=0;" edge="1" parent="WIyWlLk6GJQsqaUBKTNV-1" source="vXwoMK5besygJgzpD4nO-13" target="vXwoMK5besygJgzpD4nO-39">
          <mxGeometry relative="1" as="geometry">
            <Array as="points">
              <mxPoint x="130" y="360" />
              <mxPoint x="130" y="493" />
            </Array>
          </mxGeometry>
        </mxCell>
        <mxCell id="vXwoMK5besygJgzpD4nO-13" value="DIGITAL baseband" style="rounded=1;whiteSpace=wrap;html=1;absoluteArcSize=1;arcSize=14;strokeWidth=2;" vertex="1" parent="WIyWlLk6GJQsqaUBKTNV-1">
          <mxGeometry x="290" y="330" width="190" height="70" as="geometry" />
        </mxCell>
        <mxCell id="vXwoMK5besygJgzpD4nO-19" style="edgeStyle=orthogonalEdgeStyle;rounded=0;orthogonalLoop=1;jettySize=auto;html=1;fontSize=12;" edge="1" parent="WIyWlLk6GJQsqaUBKTNV-1" source="vXwoMK5besygJgzpD4nO-15">
          <mxGeometry relative="1" as="geometry">
            <mxPoint x="570" y="360" as="targetPoint" />
            <Array as="points">
              <mxPoint x="550" y="335" />
              <mxPoint x="550" y="360" />
            </Array>
          </mxGeometry>
        </mxCell>
        <mxCell id="vXwoMK5besygJgzpD4nO-15" value="Registers" style="rounded=1;whiteSpace=wrap;html=1;fontSize=12;" vertex="1" parent="WIyWlLk6GJQsqaUBKTNV-1">
          <mxGeometry x="600" y="320" width="100" height="30" as="geometry" />
        </mxCell>
        <mxCell id="vXwoMK5besygJgzpD4nO-21" style="edgeStyle=orthogonalEdgeStyle;rounded=0;orthogonalLoop=1;jettySize=auto;html=1;fontSize=12;" edge="1" parent="WIyWlLk6GJQsqaUBKTNV-1" source="vXwoMK5besygJgzpD4nO-16">
          <mxGeometry relative="1" as="geometry">
            <mxPoint x="560" y="385" as="targetPoint" />
          </mxGeometry>
        </mxCell>
        <mxCell id="vXwoMK5besygJgzpD4nO-16" value="CPU" style="rounded=1;whiteSpace=wrap;html=1;fontSize=12;" vertex="1" parent="WIyWlLk6GJQsqaUBKTNV-1">
          <mxGeometry x="600" y="370" width="100" height="30" as="geometry" />
        </mxCell>
        <mxCell id="vXwoMK5besygJgzpD4nO-24" style="edgeStyle=orthogonalEdgeStyle;rounded=0;orthogonalLoop=1;jettySize=auto;html=1;fontSize=12;" edge="1" parent="WIyWlLk6GJQsqaUBKTNV-1" source="vXwoMK5besygJgzpD4nO-17">
          <mxGeometry relative="1" as="geometry">
            <mxPoint x="560" y="435" as="targetPoint" />
          </mxGeometry>
        </mxCell>
        <mxCell id="vXwoMK5besygJgzpD4nO-17" value="Sequencers" style="rounded=1;whiteSpace=wrap;html=1;fontSize=12;" vertex="1" parent="WIyWlLk6GJQsqaUBKTNV-1">
          <mxGeometry x="600" y="420" width="100" height="30" as="geometry" />
        </mxCell>
        <mxCell id="vXwoMK5besygJgzpD4nO-23" value="" style="edgeStyle=orthogonalEdgeStyle;rounded=0;orthogonalLoop=1;jettySize=auto;html=1;fontSize=12;" edge="1" parent="WIyWlLk6GJQsqaUBKTNV-1" source="vXwoMK5besygJgzpD4nO-18">
          <mxGeometry relative="1" as="geometry">
            <mxPoint x="560" y="485" as="targetPoint" />
          </mxGeometry>
        </mxCell>
        <mxCell id="vXwoMK5besygJgzpD4nO-18" value="Accelerator" style="rounded=1;whiteSpace=wrap;html=1;fontSize=12;" vertex="1" parent="WIyWlLk6GJQsqaUBKTNV-1">
          <mxGeometry x="600" y="470" width="100" height="30" as="geometry" />
        </mxCell>
        <mxCell id="vXwoMK5besygJgzpD4nO-31" value="" style="edgeStyle=orthogonalEdgeStyle;rounded=0;orthogonalLoop=1;jettySize=auto;html=1;fontSize=12;" edge="1" parent="WIyWlLk6GJQsqaUBKTNV-1" source="vXwoMK5besygJgzpD4nO-25" target="vXwoMK5besygJgzpD4nO-30">
          <mxGeometry relative="1" as="geometry" />
        </mxCell>
        <mxCell id="vXwoMK5besygJgzpD4nO-25" value="" style="verticalLabelPosition=bottom;verticalAlign=top;html=1;shape=mxgraph.flowchart.or;fontSize=12;" vertex="1" parent="WIyWlLk6GJQsqaUBKTNV-1">
          <mxGeometry x="355" y="460" width="40" height="40" as="geometry" />
        </mxCell>
        <mxCell id="vXwoMK5besygJgzpD4nO-35" value="" style="edgeStyle=orthogonalEdgeStyle;rounded=0;orthogonalLoop=1;jettySize=auto;html=1;fontSize=12;" edge="1" parent="WIyWlLk6GJQsqaUBKTNV-1" source="vXwoMK5besygJgzpD4nO-30" target="vXwoMK5besygJgzpD4nO-32">
          <mxGeometry relative="1" as="geometry">
            <Array as="points">
              <mxPoint x="374" y="600" />
              <mxPoint x="374" y="600" />
            </Array>
          </mxGeometry>
        </mxCell>
        <mxCell id="vXwoMK5besygJgzpD4nO-30" value="1/2" style="rounded=1;whiteSpace=wrap;html=1;fontSize=12;" vertex="1" parent="WIyWlLk6GJQsqaUBKTNV-1">
          <mxGeometry x="348.5" y="545" width="53" height="40" as="geometry" />
        </mxCell>
        <mxCell id="vXwoMK5besygJgzpD4nO-42" value="" style="edgeStyle=orthogonalEdgeStyle;rounded=0;orthogonalLoop=1;jettySize=auto;html=1;fontSize=12;" edge="1" parent="WIyWlLk6GJQsqaUBKTNV-1" source="vXwoMK5besygJgzpD4nO-32" target="vXwoMK5besygJgzpD4nO-41">
          <mxGeometry relative="1" as="geometry">
            <Array as="points">
              <mxPoint x="370" y="690" />
              <mxPoint x="370" y="690" />
            </Array>
          </mxGeometry>
        </mxCell>
        <mxCell id="vXwoMK5besygJgzpD4nO-32" value="VCO" style="ellipse;whiteSpace=wrap;html=1;fontSize=12;" vertex="1" parent="WIyWlLk6GJQsqaUBKTNV-1">
          <mxGeometry x="346.5" y="630" width="55" height="50" as="geometry" />
        </mxCell>
        <mxCell id="vXwoMK5besygJgzpD4nO-36" value="SDIO" style="rounded=1;whiteSpace=wrap;html=1;fontSize=12;" vertex="1" parent="WIyWlLk6GJQsqaUBKTNV-1">
          <mxGeometry x="70" y="340" width="120" height="30" as="geometry" />
        </mxCell>
        <mxCell id="vXwoMK5besygJgzpD4nO-37" value="SPI" style="rounded=1;whiteSpace=wrap;html=1;fontSize=12;" vertex="1" parent="WIyWlLk6GJQsqaUBKTNV-1">
          <mxGeometry x="70" y="390" width="120" height="30" as="geometry" />
        </mxCell>
        <mxCell id="vXwoMK5besygJgzpD4nO-38" value="GPIO" style="rounded=1;whiteSpace=wrap;html=1;fontSize=12;" vertex="1" parent="WIyWlLk6GJQsqaUBKTNV-1">
          <mxGeometry x="70" y="440" width="120" height="30" as="geometry" />
        </mxCell>
        <mxCell id="vXwoMK5besygJgzpD4nO-39" value="I2C" style="rounded=1;whiteSpace=wrap;html=1;fontSize=12;" vertex="1" parent="WIyWlLk6GJQsqaUBKTNV-1">
          <mxGeometry x="70" y="490" width="120" height="30" as="geometry" />
        </mxCell>
        <mxCell id="vXwoMK5besygJgzpD4nO-41" value="PLL" style="rounded=0;whiteSpace=wrap;html=1;fontSize=12;" vertex="1" parent="WIyWlLk6GJQsqaUBKTNV-1">
          <mxGeometry x="310" y="720" width="120" height="40" as="geometry" />
        </mxCell>
      </root>
    </mxGraphModel>
  </diagram>
</mxfile>
